<svg width="174" height="38" viewBox="0 0 174 38" fill="none" xmlns="http://www.w3.org/2000/svg">
<path d="M12.6721 34.024C13.3121 34.024 13.9681 33.976 14.6401 33.88C15.3121 33.752 15.8561 33.624 16.2721 33.496V36.712C15.8241 36.936 15.1841 37.112 14.3521 37.24C13.5201 37.4 12.7201 37.48 11.9521 37.48C10.6081 37.48 9.36007 37.256 8.20807 36.808C7.08807 36.328 6.17607 35.512 5.47207 34.36C4.76807 33.208 4.41607 31.592 4.41607 29.512V14.536H0.768066V12.52L4.46407 10.84L6.14407 5.36799H8.64007V11.272H16.0801V14.536H8.64007V29.416C8.64007 30.984 9.00807 32.152 9.74407 32.92C10.5121 33.656 11.4881 34.024 12.6721 34.024Z" fill="#1E40AF"/>
<path d="M33.4238 10.792C33.9038 10.792 34.4158 10.824 34.9598 10.888C35.5358 10.92 36.0318 10.984 36.4478 11.08L35.9198 14.968C35.5038 14.872 35.0398 14.792 34.5278 14.728C34.0478 14.664 33.5838 14.632 33.1358 14.632C32.1438 14.632 31.1998 14.84 30.3038 15.256C29.4078 15.672 28.6078 16.264 27.9038 17.032C27.1998 17.768 26.6398 18.664 26.2238 19.72C25.8398 20.776 25.6478 21.96 25.6478 23.272V37H21.4238V11.272H24.8798L25.3598 15.976H25.5518C26.0958 15.016 26.7518 14.152 27.5198 13.384C28.2878 12.584 29.1678 11.96 30.1598 11.512C31.1518 11.032 32.2398 10.792 33.4238 10.792Z" fill="#1E40AF"/>
<path d="M50.0584 10.84C53.1944 10.84 55.5144 11.528 57.0184 12.904C58.5224 14.28 59.2744 16.472 59.2744 19.48V37H56.2024L55.3864 33.352H55.1944C54.4584 34.28 53.6904 35.064 52.8904 35.704C52.1224 36.312 51.2264 36.76 50.2024 37.048C49.2104 37.336 47.9944 37.48 46.5544 37.48C45.0184 37.48 43.6264 37.208 42.3784 36.664C41.1624 36.12 40.2024 35.288 39.4984 34.168C38.7944 33.016 38.4424 31.576 38.4424 29.848C38.4424 27.288 39.4504 25.32 41.4664 23.944C43.4824 22.536 46.5864 21.768 50.7784 21.64L55.1464 21.496V19.96C55.1464 17.816 54.6824 16.328 53.7544 15.496C52.8264 14.664 51.5144 14.248 49.8184 14.248C48.4744 14.248 47.1944 14.456 45.9784 14.872C44.7624 15.256 43.6264 15.704 42.5704 16.216L41.2744 13.048C42.3944 12.44 43.7224 11.928 45.2584 11.512C46.7944 11.064 48.3944 10.84 50.0584 10.84ZM51.3064 24.568C48.1064 24.696 45.8824 25.208 44.6344 26.104C43.4184 27 42.8104 28.264 42.8104 29.896C42.8104 31.336 43.2424 32.392 44.1064 33.064C45.0024 33.736 46.1384 34.072 47.5144 34.072C49.6904 34.072 51.4984 33.48 52.9384 32.296C54.3784 31.08 55.0984 29.224 55.0984 26.728V24.424L51.3064 24.568Z" fill="#1E40AF"/>
<path d="M72.8847 37L63.1407 11.272H67.6527L73.1247 26.44C73.3807 27.144 73.6527 27.928 73.9407 28.792C74.2287 29.656 74.4847 30.488 74.7087 31.288C74.9327 32.056 75.0927 32.712 75.1887 33.256H75.3807C75.5087 32.712 75.6847 32.04 75.9087 31.24C76.1647 30.44 76.4367 29.608 76.7247 28.744C77.0447 27.88 77.3167 27.112 77.5407 26.44L83.0127 11.272H87.5247L77.7327 37H72.8847Z" fill="#1E40AF"/>
<path d="M101.532 10.792C103.74 10.792 105.628 11.272 107.196 12.232C108.796 13.192 110.012 14.552 110.844 16.312C111.708 18.04 112.14 20.072 112.14 22.408V24.952H94.5237C94.5877 27.864 95.3237 30.088 96.7317 31.624C98.1717 33.128 100.172 33.88 102.732 33.88C104.364 33.88 105.804 33.736 107.052 33.448C108.332 33.128 109.644 32.68 110.988 32.104V35.8C109.676 36.376 108.38 36.792 107.1 37.048C105.82 37.336 104.3 37.48 102.54 37.48C100.108 37.48 97.9477 36.984 96.0597 35.992C94.2037 35 92.7477 33.528 91.6917 31.576C90.6677 29.592 90.1557 27.176 90.1557 24.328C90.1557 21.512 90.6197 19.096 91.5477 17.08C92.5077 15.064 93.8357 13.512 95.5317 12.424C97.2597 11.336 99.2597 10.792 101.532 10.792ZM101.484 14.248C99.4677 14.248 97.8677 14.904 96.6837 16.216C95.5317 17.496 94.8437 19.288 94.6197 21.592H107.724C107.724 20.12 107.5 18.84 107.052 17.752C106.604 16.664 105.916 15.816 104.988 15.208C104.092 14.568 102.924 14.248 101.484 14.248Z" fill="#1E40AF"/>
<path d="M122.913 37H118.689V0.519989H122.913V37Z" fill="#1E40AF"/>
<path d="M141 10.792C143.208 10.792 145.096 11.272 146.664 12.232C148.264 13.192 149.48 14.552 150.312 16.312C151.176 18.04 151.608 20.072 151.608 22.408V24.952H133.992C134.056 27.864 134.792 30.088 136.2 31.624C137.64 33.128 139.64 33.88 142.2 33.88C143.832 33.88 145.272 33.736 146.52 33.448C147.8 33.128 149.112 32.68 150.456 32.104V35.8C149.144 36.376 147.848 36.792 146.568 37.048C145.288 37.336 143.768 37.48 142.008 37.48C139.576 37.48 137.416 36.984 135.528 35.992C133.672 35 132.216 33.528 131.16 31.576C130.136 29.592 129.624 27.176 129.624 24.328C129.624 21.512 130.088 19.096 131.016 17.08C131.976 15.064 133.304 13.512 135 12.424C136.728 11.336 138.728 10.792 141 10.792ZM140.952 14.248C138.936 14.248 137.336 14.904 136.152 16.216C135 17.496 134.312 19.288 134.088 21.592H147.192C147.192 20.12 146.968 18.84 146.52 17.752C146.072 16.664 145.384 15.816 144.456 15.208C143.56 14.568 142.392 14.248 140.952 14.248Z" fill="#1E40AF"/>
<path d="M170.158 10.792C170.638 10.792 171.15 10.824 171.694 10.888C172.27 10.92 172.766 10.984 173.182 11.08L172.654 14.968C172.238 14.872 171.774 14.792 171.262 14.728C170.782 14.664 170.318 14.632 169.87 14.632C168.878 14.632 167.934 14.84 167.038 15.256C166.142 15.672 165.342 16.264 164.638 17.032C163.934 17.768 163.374 18.664 162.958 19.72C162.574 20.776 162.382 21.96 162.382 23.272V37H158.158V11.272H161.614L162.094 15.976H162.286C162.83 15.016 163.486 14.152 164.254 13.384C165.022 12.584 165.902 11.96 166.894 11.512C167.886 11.032 168.974 10.792 170.158 10.792Z" fill="#1E40AF"/>
</svg>
